<svg width="112" height="39" viewBox="0 0 112 39" fill="none" xmlns="http://www.w3.org/2000/svg">
<path d="M16.2955 7.72727H21.4545L28.3636 24.5909H28.6364L35.5455 7.72727H40.7045V31H36.6591V15.0114H36.4432L30.0114 30.9318H26.9886L20.5568 14.9773H20.3409V31H16.2955V7.72727ZM52.7273 31.3409C51.0227 31.3409 49.5455 30.9659 48.2955 30.2159C47.0455 29.4659 46.0758 28.4167 45.3864 27.0682C44.7045 25.7197 44.3636 24.1439 44.3636 22.3409C44.3636 20.5379 44.7045 18.9583 45.3864 17.6023C46.0758 16.2462 47.0455 15.1932 48.2955 14.4432C49.5455 13.6932 51.0227 13.3182 52.7273 13.3182C54.4318 13.3182 55.9091 13.6932 57.1591 14.4432C58.4091 15.1932 59.375 16.2462 60.0568 17.6023C60.7462 18.9583 61.0909 20.5379 61.0909 22.3409C61.0909 24.1439 60.7462 25.7197 60.0568 27.0682C59.375 28.4167 58.4091 29.4659 57.1591 30.2159C55.9091 30.9659 54.4318 31.3409 52.7273 31.3409ZM52.75 28.0455C53.6742 28.0455 54.447 27.7917 55.0682 27.2841C55.6894 26.7689 56.1515 26.0795 56.4545 25.2159C56.7652 24.3523 56.9205 23.3902 56.9205 22.3295C56.9205 21.2614 56.7652 20.2955 56.4545 19.4318C56.1515 18.5606 55.6894 17.8674 55.0682 17.3523C54.447 16.8371 53.6742 16.5795 52.75 16.5795C51.803 16.5795 51.0152 16.8371 50.3864 17.3523C49.7652 17.8674 49.2992 18.5606 48.9886 19.4318C48.6856 20.2955 48.5341 21.2614 48.5341 22.3295C48.5341 23.3902 48.6856 24.3523 48.9886 25.2159C49.2992 26.0795 49.7652 26.7689 50.3864 27.2841C51.0152 27.7917 51.803 28.0455 52.75 28.0455ZM64.5824 31V13.5455H68.571V16.4545H68.7528C69.071 15.447 69.6165 14.6705 70.3892 14.125C71.1695 13.572 72.0597 13.2955 73.0597 13.2955C73.2869 13.2955 73.5407 13.3068 73.821 13.3295C74.1089 13.3447 74.3475 13.3712 74.5369 13.4091V17.1932C74.3627 17.1326 74.0862 17.0795 73.7074 17.0341C73.3362 16.9811 72.9763 16.9545 72.6278 16.9545C71.8778 16.9545 71.2036 17.1174 70.6051 17.4432C70.0142 17.7614 69.5483 18.2045 69.2074 18.7727C68.8665 19.3409 68.696 19.9962 68.696 20.7386V31H64.5824ZM91.0653 18.1591L87.3153 18.5682C87.2093 18.1894 87.0237 17.8333 86.7585 17.5C86.5009 17.1667 86.1525 16.8977 85.7131 16.6932C85.2737 16.4886 84.7358 16.3864 84.0994 16.3864C83.2434 16.3864 82.5237 16.572 81.9403 16.9432C81.3646 17.3144 81.0805 17.7955 81.0881 18.3864C81.0805 18.8939 81.2661 19.3068 81.6449 19.625C82.0313 19.9432 82.6676 20.2045 83.554 20.4091L86.5312 21.0455C88.1828 21.4015 89.41 21.9659 90.2131 22.7386C91.0237 23.5114 91.4328 24.5227 91.4403 25.7727C91.4328 26.8712 91.1108 27.8409 90.4744 28.6818C89.8456 29.5152 88.9706 30.1667 87.8494 30.6364C86.7282 31.1061 85.4403 31.3409 83.9858 31.3409C81.8494 31.3409 80.1297 30.8939 78.8267 30C77.5237 29.0985 76.7472 27.8447 76.4972 26.2386L80.5085 25.8523C80.6903 26.6402 81.0767 27.2348 81.6676 27.6364C82.2585 28.0379 83.0275 28.2386 83.9744 28.2386C84.9517 28.2386 85.7358 28.0379 86.3267 27.6364C86.9252 27.2348 87.2244 26.7386 87.2244 26.1477C87.2244 25.6477 87.0313 25.2348 86.6449 24.9091C86.2661 24.5833 85.6752 24.3333 84.8722 24.1591L81.8949 23.5341C80.2206 23.1856 78.982 22.5985 78.179 21.7727C77.3759 20.9394 76.9782 19.8864 76.9858 18.6136C76.9782 17.5379 77.2699 16.6061 77.8608 15.8182C78.4593 15.0227 79.2888 14.4091 80.3494 13.9773C81.4176 13.5379 82.6487 13.3182 84.0426 13.3182C86.0881 13.3182 87.6979 13.7538 88.8722 14.625C90.054 15.4962 90.785 16.6742 91.0653 18.1591ZM102.56 31.3409C100.81 31.3409 99.2983 30.9773 98.0256 30.25C96.7604 29.5152 95.7869 28.4773 95.1051 27.1364C94.4233 25.7879 94.0824 24.2008 94.0824 22.375C94.0824 20.5795 94.4233 19.0038 95.1051 17.6477C95.7945 16.2841 96.7566 15.2235 97.9915 14.4659C99.2263 13.7008 100.677 13.3182 102.344 13.3182C103.42 13.3182 104.435 13.4924 105.389 13.8409C106.351 14.1818 107.2 14.7121 107.935 15.4318C108.677 16.1515 109.26 17.0682 109.685 18.1818C110.109 19.2879 110.321 20.6061 110.321 22.1364V23.3977H96.0142V20.625H106.378C106.37 19.8371 106.2 19.1364 105.866 18.5227C105.533 17.9015 105.067 17.4129 104.469 17.0568C103.878 16.7008 103.188 16.5227 102.401 16.5227C101.56 16.5227 100.821 16.7273 100.185 17.1364C99.5483 17.5379 99.0521 18.0682 98.696 18.7273C98.3475 19.3788 98.1695 20.0947 98.1619 20.875V23.2955C98.1619 24.3106 98.3475 25.1818 98.7188 25.9091C99.09 26.6288 99.6089 27.1818 100.276 27.5682C100.942 27.947 101.723 28.1364 102.616 28.1364C103.215 28.1364 103.757 28.053 104.241 27.8864C104.726 27.7121 105.147 27.4583 105.503 27.125C105.859 26.7917 106.128 26.3788 106.31 25.8864L110.151 26.3182C109.908 27.3333 109.446 28.2197 108.764 28.9773C108.09 29.7273 107.226 30.3106 106.173 30.7273C105.12 31.1364 103.916 31.3409 102.56 31.3409Z" fill="black"/>
<circle cx="4" cy="18" r="4" fill="black"/>
</svg>
