<svg width="100" height="32" viewBox="0 0 100 32" fill="none" xmlns="http://www.w3.org/2000/svg">
<path d="M2.02273 4.72727H8.09091L14.5 20.3636H14.7727L21.1818 4.72727H27.25V28H22.4773V12.8523H22.2841L16.2614 27.8864H13.0114L6.98864 12.7955H6.79545V28H2.02273V4.72727ZM39.0994 28.3409C37.3343 28.3409 35.8078 27.9659 34.5199 27.2159C33.2396 26.4583 32.2509 25.4053 31.554 24.0568C30.857 22.7008 30.5085 21.1288 30.5085 19.3409C30.5085 17.5379 30.857 15.9621 31.554 14.6136C32.2509 13.2576 33.2396 12.2045 34.5199 11.4545C35.8078 10.697 37.3343 10.3182 39.0994 10.3182C40.8646 10.3182 42.3873 10.697 43.6676 11.4545C44.9555 12.2045 45.9479 13.2576 46.6449 14.6136C47.3419 15.9621 47.6903 17.5379 47.6903 19.3409C47.6903 21.1288 47.3419 22.7008 46.6449 24.0568C45.9479 25.4053 44.9555 26.4583 43.6676 27.2159C42.3873 27.9659 40.8646 28.3409 39.0994 28.3409ZM39.1222 24.5909C39.9252 24.5909 40.5956 24.3636 41.1335 23.9091C41.6714 23.447 42.0767 22.8182 42.3494 22.0227C42.6297 21.2273 42.7699 20.322 42.7699 19.3068C42.7699 18.2917 42.6297 17.3864 42.3494 16.5909C42.0767 15.7955 41.6714 15.1667 41.1335 14.7045C40.5956 14.2424 39.9252 14.0114 39.1222 14.0114C38.3116 14.0114 37.6297 14.2424 37.0767 14.7045C36.5313 15.1667 36.1184 15.7955 35.8381 16.5909C35.5653 17.3864 35.429 18.2917 35.429 19.3068C35.429 20.322 35.5653 21.2273 35.8381 22.0227C36.1184 22.8182 36.5313 23.447 37.0767 23.9091C37.6297 24.3636 38.3116 24.5909 39.1222 24.5909ZM50.8381 28V10.5455H55.5312V13.5909H55.7131C56.0313 12.5076 56.5653 11.6894 57.3153 11.1364C58.0653 10.5758 58.929 10.2955 59.9062 10.2955C60.1487 10.2955 60.41 10.3106 60.6903 10.3409C60.9706 10.3712 61.2169 10.4129 61.429 10.4659V14.7614C61.2017 14.6932 60.8873 14.6326 60.4858 14.5795C60.0843 14.5265 59.7169 14.5 59.3835 14.5C58.6714 14.5 58.035 14.6553 57.4744 14.9659C56.9214 15.2689 56.482 15.6932 56.1562 16.2386C55.8381 16.7841 55.679 17.4129 55.679 18.125V28H50.8381ZM78.4545 15.5227L74.0227 15.7955C73.947 15.4167 73.7841 15.0758 73.5341 14.7727C73.2841 14.4621 72.9545 14.2159 72.5455 14.0341C72.1439 13.8447 71.6629 13.75 71.1023 13.75C70.3523 13.75 69.7197 13.9091 69.2045 14.2273C68.6894 14.5379 68.4318 14.9545 68.4318 15.4773C68.4318 15.8939 68.5985 16.2462 68.9318 16.5341C69.2652 16.822 69.8371 17.053 70.6477 17.2273L73.8068 17.8636C75.5038 18.2121 76.7689 18.7727 77.6023 19.5455C78.4356 20.3182 78.8523 21.3333 78.8523 22.5909C78.8523 23.7348 78.5152 24.7386 77.8409 25.6023C77.1742 26.4659 76.2576 27.1402 75.0909 27.625C73.9318 28.1023 72.5947 28.3409 71.0795 28.3409C68.7689 28.3409 66.928 27.8598 65.5568 26.8977C64.1932 25.928 63.3939 24.6098 63.1591 22.9432L67.9205 22.6932C68.0644 23.3977 68.4129 23.9356 68.9659 24.3068C69.5189 24.6705 70.2273 24.8523 71.0909 24.8523C71.9394 24.8523 72.6212 24.6894 73.1364 24.3636C73.6591 24.0303 73.9242 23.6023 73.9318 23.0795C73.9242 22.6402 73.7386 22.2803 73.375 22C73.0114 21.7121 72.4508 21.4924 71.6932 21.3409L68.6705 20.7386C66.9659 20.3977 65.697 19.8068 64.8636 18.9659C64.0379 18.125 63.625 17.053 63.625 15.75C63.625 14.6288 63.928 13.6629 64.5341 12.8523C65.1477 12.0417 66.0076 11.4167 67.1136 10.9773C68.2273 10.5379 69.5303 10.3182 71.0227 10.3182C73.2273 10.3182 74.9621 10.7841 76.2273 11.7159C77.5 12.6477 78.2424 13.9167 78.4545 15.5227ZM89.8551 28.3409C88.0597 28.3409 86.5142 27.9773 85.2188 27.25C83.9309 26.5152 82.9384 25.4773 82.2415 24.1364C81.5445 22.7879 81.196 21.1932 81.196 19.3523C81.196 17.5568 81.5445 15.9811 82.2415 14.625C82.9384 13.2689 83.9195 12.2121 85.1847 11.4545C86.4574 10.697 87.9498 10.3182 89.6619 10.3182C90.8134 10.3182 91.8854 10.5038 92.8778 10.875C93.8778 11.2386 94.7491 11.7879 95.4915 12.5227C96.2415 13.2576 96.8248 14.1818 97.2415 15.2955C97.6581 16.4015 97.8665 17.697 97.8665 19.1818V20.5114H83.1278V17.5114H93.3097C93.3097 16.8144 93.1581 16.197 92.8551 15.6591C92.5521 15.1212 92.1316 14.7008 91.5938 14.3977C91.0634 14.0871 90.446 13.9318 89.7415 13.9318C89.0066 13.9318 88.3551 14.1023 87.7869 14.4432C87.2263 14.7765 86.7869 15.2273 86.4688 15.7955C86.1506 16.3561 85.9877 16.9811 85.9801 17.6705V20.5227C85.9801 21.3864 86.1392 22.1326 86.4574 22.7614C86.7831 23.3902 87.2415 23.875 87.8324 24.2159C88.4233 24.5568 89.1241 24.7273 89.9347 24.7273C90.4725 24.7273 90.965 24.6515 91.4119 24.5C91.8589 24.3485 92.2415 24.1212 92.5597 23.8182C92.8778 23.5152 93.1203 23.1439 93.2869 22.7045L97.7642 23C97.5369 24.0758 97.071 25.0152 96.3665 25.8182C95.6695 26.6136 94.768 27.2348 93.6619 27.6818C92.5634 28.1212 91.2945 28.3409 89.8551 28.3409Z" fill="#030712"/>
</svg>
